<svg id="Layer_1" data-name="Layer 1" xmlns="http://www.w3.org/2000/svg" viewBox="0 0 576 504"><defs><style>.cls-1{fill:#c543c1;}.cls-2{fill:#fefffb;}</style></defs><path class="cls-1" d="M288.72,504h-1.44C148.51,504,36,391.5,36,252.73v-1.44C36,112.51,148.51,0,287.28,0h1.44C427.5,0,540,112.51,540,251.29v1.44C540,391.5,427.5,504,288.72,504"/><path class="cls-2" d="M211.52,202.88V391.81H151.83V202.88Zm-55.34-35.35a30,30,0,0,1-9.94-22.87,30.45,30.45,0,0,1,9.94-23.22q10-9.22,25.67-9.24,15.36,0,25.3,9.24a30.39,30.39,0,0,1,9.95,23.22,30,30,0,0,1-9.95,22.87q-10,9.25-25.3,9.25-15.72,0-25.67-9.25"/><path class="cls-2" d="M410.24,221.54q19.51,21.18,19.53,58.21V388.47H373.05V287.41q0-18.68-9.67-29t-26-10.34q-16.33,0-26,10.34t-9.69,29V388.47h-57V202.36h57V227A60.36,60.36,0,0,1,325,207.52q14.7-7.17,33-7.17,32.68,0,52.19,21.19"/></svg>