<svg id="Layer_1" data-name="Layer 1" xmlns="http://www.w3.org/2000/svg" viewBox="0 0 576 504"><defs><style>.cls-1{fill:#c543c1;}</style></defs><path class="cls-1" d="M293.21,121.21a121.13,121.13,0,0,0-103.6,184.28l3.15,5.17-12.13,45.26,45.51-12.21,5.13,3.07a121.3,121.3,0,1,0,61.94-225.57Zm71.29,167.2c-4.51,11-15.73,18-27.11,20.16-10.86,2.07-19.83-1.33-29.89-4.72a124.43,124.43,0,0,1-25.68-12.22,146.28,146.28,0,0,1-41.12-38.24A166.08,166.08,0,0,1,231.21,239a78.36,78.36,0,0,1-9.1-21,42.57,42.57,0,0,1-1.18-9.48c-.12-11.26,4.16-22.61,13.08-29.87,5.16-4.2,12.78-6,18.56-2.76,6.3,3.56,9.57,12.52,12.48,18.81,2.29,4.92,4.89,11.39,4,16.91s-5.3,10.19-8.8,14.28c-2.35,2.78-2.66,5.14-.76,8.12a97.06,97.06,0,0,0,48.42,41.49c2.84,1.15,5.06.79,6.9-1.49,3.61-4.45,7.16-13.17,12.73-15.45,7.26-3,15.27,1.16,21.44,4.84,5.73,3.42,15.32,7.64,16.87,14.73A17.59,17.59,0,0,1,364.5,288.41Z"/><path class="cls-1" d="M288,0C148.84,0,36,112.74,36,252S148.82,504,288,504,540,391.2,540,252,427.16,0,288,0Zm5.21,392.19a149.28,149.28,0,0,1-71.13-18.13l-81.46,21.83,21.72-81.05a149.57,149.57,0,1,1,130.87,77.35Z"/></svg>