<svg id="Layer_1" data-name="Layer 1" xmlns="http://www.w3.org/2000/svg" viewBox="0 0 576 504"><defs><style>.cls-1{fill:#c543c1;}</style></defs><path class="cls-1" d="M345.24,249.92l-79.36-43.19c-3.25-1.85-14.39.49-14.39,4.25v84.19c0,3.7,11,6.05,14.29,4.3l82.91-41C352.06,256.62,348.57,251.8,345.24,249.92Z"/><path class="cls-1" d="M288,0C148.84,0,36,112.74,36,252S148.82,504,288,504,540,391.2,540,252,427.17,0,288,0ZM457.44,295a72.32,72.32,0,0,1-72.25,72.38H200.24a72.31,72.31,0,0,1-72.31-72.31V209a72.31,72.31,0,0,1,72.25-72.36h185a72.32,72.32,0,0,1,72.31,72.31Z"/></svg>