<svg id="Layer_1" data-name="Layer 1" xmlns="http://www.w3.org/2000/svg" viewBox="0 0 576 504"><defs><style>.cls-1{fill:#c543c1;}</style></defs><path class="cls-1" d="M289.33,203.8a48.2,48.2,0,1,0,48.11,48.28V252A48.25,48.25,0,0,0,289.33,203.8Z"/><path class="cls-1" d="M349,128H227a63.08,63.08,0,0,0-63,63V313a63.1,63.1,0,0,0,63,63H349a63.12,63.12,0,0,0,63-63V191A63.1,63.1,0,0,0,349,128ZM289.33,327.23a75.23,75.23,0,1,1,75.16-75.3V252A75.32,75.32,0,0,1,289.33,327.23Zm79.58-137.57a17.92,17.92,0,1,1,17.91-17.92,17.92,17.92,0,0,1-17.91,17.92Z"/><path class="cls-1" d="M288,0C148.83,0,36,112.74,36,252S148.8,504,288,504,540,391.2,540,252,427.17,0,288,0ZM440.74,313A91.86,91.86,0,0,1,349,404.73H227A91.86,91.86,0,0,1,135.26,313V191A91.86,91.86,0,0,1,227,99.26H349A91.86,91.86,0,0,1,440.74,191Z"/></svg>